<?xml version="1.0" standalone="no"?>
<!DOCTYPE svg PUBLIC "-//W3C//DTD SVG 20010904//EN"
 "http://www.w3.org/TR/2001/REC-SVG-20010904/DTD/svg10.dtd">
<svg version="1.0" xmlns="http://www.w3.org/2000/svg"
 width="357.000000pt" height="357.000000pt" viewBox="0 0 357.000000 357.000000"
 preserveAspectRatio="xMidYMid meet">
<metadata>
Created by potrace 1.14, written by Peter Selinger 2001-2017
</metadata>
<g transform="translate(0.000000,357.000000) scale(0.100000,-0.100000)"
fill="#000000" stroke="none">
<path d="M1610 3563 c-461 -52 -868 -262 -1167 -603 -234 -266 -383 -600 -431
-965 -9 -67 -9 -344 1 -428 35 -322 188 -673 407 -932 286 -338 672 -551 1125
-619 89 -14 409 -14 485 -1 176 30 271 56 400 105 90 35 264 122 291 146 8 8
19 14 24 14 16 0 191 138 269 211 150 141 303 354 389 539 39 84 105 269 113
319 3 14 9 42 14 61 45 172 50 408 15 676 -8 65 -54 233 -90 329 -59 159 -144
310 -264 470 -69 93 -257 273 -361 347 -207 147 -466 260 -691 303 -13 3 -35
7 -49 10 -14 3 -43 7 -65 11 -50 7 -368 13 -415 7z m498 -1058 c45 -26 82 -52
82 -59 0 -9 -169 -443 -200 -511 -5 -11 -52 -130 -105 -265 -54 -135 -108
-270 -120 -300 -13 -30 -72 -176 -130 -325 -59 -148 -109 -273 -111 -277 -5
-7 -131 69 -165 98 -14 13 -5 42 93 287 59 149 112 281 117 292 5 11 40 97 76
190 37 94 73 184 80 200 7 17 20 50 30 75 9 25 23 59 30 75 7 17 62 152 121
302 59 150 110 271 113 269 3 -2 43 -25 89 -51z m387 -253 c22 -13 73 -45 112
-70 40 -26 180 -116 312 -200 l239 -152 -1 -75 c0 -55 -4 -78 -16 -89 -9 -7
-142 -98 -296 -201 -154 -104 -309 -208 -343 -232 -90 -63 -88 -63 -115 -1
-13 29 -34 75 -47 101 -27 56 -38 41 110 144 233 162 310 210 378 237 71 29
91 46 53 46 -11 0 -22 4 -25 9 -3 4 -27 14 -53 22 -31 8 -126 65 -263 157
-118 79 -218 147 -223 151 -4 4 14 53 40 109 l47 102 26 -17 c14 -9 43 -28 65
-41z m-1273 -50 c34 -73 43 -100 35 -108 -48 -46 -417 -288 -487 -318 -47 -21
-86 -39 -87 -40 -2 -1 35 -17 82 -35 62 -23 144 -71 300 -175 l215 -143 -50
-102 c-27 -55 -52 -101 -54 -101 -3 0 -63 37 -133 83 -70 46 -237 152 -371
237 l-243 154 3 79 3 80 310 209 c416 282 409 276 420 277 6 1 31 -43 57 -97z"/>
</g>
</svg>
